PathFileType	4	(X/Y/Z)	c:/Users/goper/Files/vsCode/490R/osim_files/C06/C06_SSWS_04.trc
DataRate	CameraRate	NumFrames	NumMarkers	Units                	OrigDataRate	OrigDataStartFrame	OrigNumFrames
250.00	250.00	4	36	mm	250.0	1404	2806
                Frame#	Time	LPSIS			LASIS			LTH1			LTH2			LTH3			LTH4			LLFE			LMFE			LSH1			LSH2			LSH3			LSH4			LLMAL			LMMAL			LCAL			LMTP5			LTOE			LMTP1			RPSIS			RASIS			RTH1			RTH2			RTH3			RTH4			RLFE			RMFE			RSH1			RSH2			RSH3			RSH4			RLMAL			RMMAL			RCAL			RMTP1			RTOE			RMTP5		
		X1	Y1	Z1	X2	Y2	Z2	X3	Y3	Z3	X4	Y4	Z4	X5	Y5	Z5	X6	Y6	Z6	X7	Y7	Z7	X8	Y8	Z8	X9	Y9	Z9	X10	Y10	Z10	X11	Y11	Z11	X12	Y12	Z12	X13	Y13	Z13	X14	Y14	Z14	X15	Y15	Z15	X16	Y16	Z16	X17	Y17	Z17	X18	Y18	Z18	X19	Y19	Z19	X20	Y20	Z20	X21	Y21	Z21	X22	Y22	Z22	X23	Y23	Z23	X24	Y24	Z24	X25	Y25	Z25	X26	Y26	Z26	X27	Y27	Z27	X28	Y28	Z28	X29	Y29	Z29	X30	Y30	Z30	X31	Y31	Z31	X32	Y32	Z32	X33	Y33	Z33	X34	Y34	Z34	X35	Y35	Z35	X36	Y36	Z36

1404	5.61200	-398.89157	954.45367	205.69461	-569.52783	933.73944	322.62668	-444.26245	753.61719	388.51831	-433.73328	691.92273	384.15579	-516.33392	736.28790	373.39468	-496.48138	677.87195	371.11838	-349.25558	456.10321	327.12350	-337.81674	443.13593	211.52654	-236.90146	389.19904	346.18951	-223.29004	347.77399	341.05222	-295.45605	361.24115	341.47455	-270.89749	324.52701	338.13223	-125.03532	130.73473	292.59741	-135.90378	148.57974	215.93816	-47.77604	122.99195	252.39290	-205.18333	35.42581	314.93817	-258.12320	40.59290	245.90399	-221.82320	35.32244	201.83386	-398.72702	946.10815	135.68820	-583.28070	936.43756	81.64502	-560.34155	726.82166	-2.25674	-597.12036	675.92297	0.45331	-625.63544	765.86218	7.67257	-652.39160	709.18774	8.74264	-746.28278	454.67734	54.08882	-758.74176	477.15143	160.12904	-720.56128	368.13034	38.11503	-739.45343	321.49820	39.02501	-779.50787	380.60513	45.14500	-788.00989	334.54898	45.38564	-845.31360	94.05463	78.86947	-848.03546	120.57010	156.57301	-795.39386	58.66750	126.79604	-999.03778	82.46070	159.23024	-1007.68695	114.90874	113.30006	-973.69012	69.86115	48.79630
1405	5.61600	-405.54086	954.18884	205.49013	-576.29211	932.76508	322.18204	-450.36157	752.97034	387.69211	-439.60541	691.29034	383.42383	-522.27631	735.47290	372.60324	-502.10077	676.87964	370.80643	-354.45596	455.70044	326.59869	-343.16669	442.72812	210.96428	-241.44385	389.91644	345.65952	-227.32880	348.42511	340.94388	-299.73798	361.35199	341.05109	-274.91425	324.83102	337.79297	-126.98508	132.51634	292.67358	-138.07932	150.23393	215.91878	-49.78580	125.96660	252.34492	-205.59706	35.67905	314.94510	-258.50485	39.93140	246.07918	-222.06972	35.38095	201.79291	-405.12106	945.93042	135.40218	-589.71338	935.98260	81.09517	-567.56024	726.91052	-3.08863	-603.66437	675.82660	0.08101	-632.41815	765.15149	7.43462	-658.67932	708.59399	7.82021	-751.86853	453.95367	53.90599	-764.37488	476.29907	159.83446	-725.82007	367.41254	38.47702	-744.54285	320.64569	39.52496	-785.17987	379.60052	45.60735	-793.06348	333.58069	45.75322	-848.45435	93.62237	78.86380	-851.73657	119.39588	156.66911	-797.33698	59.24216	126.93732	-1001.41913	77.78481	159.28052	-1010.56616	110.57946	113.59229	-975.87695	66.01487	49.06545
1406	5.62000	-412.28415	954.01929	205.27910	-583.06213	931.83087	321.74219	-456.36560	752.42822	386.97409	-445.57092	690.71692	382.62457	-528.30530	734.62952	371.99518	-507.97409	676.10132	370.14960	-359.76767	455.33823	326.07932	-348.21371	442.41586	210.23238	-246.34306	390.72736	345.45346	-231.71083	349.38422	340.26602	-304.04565	361.61765	341.42966	-278.94275	325.21786	337.41415	-129.15022	134.38632	292.69354	-140.31096	151.94051	215.91086	-51.85996	129.09854	252.30296	-206.04135	35.95726	314.94623	-258.87173	39.25865	246.37102	-222.40434	35.43495	201.75751	-411.61731	945.77417	135.05615	-596.10614	935.52606	80.42766	-573.69336	726.68225	-3.29231	-610.06104	675.40979	-0.27945	-638.93005	764.65808	6.88171	-665.56866	708.07080	7.67172	-757.41943	453.37024	53.55170	-770.03497	475.42560	159.74025	-731.07428	366.78058	38.98469	-749.75311	319.99026	39.96643	-790.21063	378.87439	45.19116	-798.33875	332.82886	45.86296	-851.61194	93.07712	78.79580	-855.03906	118.25451	156.75372	-799.00964	59.82658	126.98328	-1003.50128	73.34437	159.50839	-1013.40222	106.24496	113.92878	-977.87445	62.30447	49.41775
1407	5.62400	-419.05103	953.98419	205.06104	-589.89514	930.87292	321.28903	-462.62082	751.86359	386.09692	-451.48544	690.27881	381.79929	-534.35571	733.92993	371.32697	-514.11615	675.47192	369.52673	-365.24969	454.98102	325.56589	-354.28925	441.96097	209.74504	-251.04832	391.51407	344.55774	-236.13612	350.53738	339.74887	-308.68521	361.62805	340.27560	-282.82742	325.88409	337.71542	-131.35706	136.30304	292.70816	-142.81583	153.68417	215.87578	-54.09056	132.34914	252.25056	-206.52188	36.34437	314.91074	-259.25226	38.99650	246.45319	-222.50941	35.57817	201.20407	-417.95151	945.83789	134.74423	-602.54919	935.16132	79.83528	-580.26532	726.62518	-3.80816	-616.25989	675.19904	-0.69012	-645.68109	764.32184	6.28913	-671.79230	707.57959	6.88633	-763.05212	452.90961	53.16225	-775.54877	474.63300	159.72467	-736.49683	366.28983	39.32977	-755.02844	319.52710	40.32719	-795.72223	378.39987	45.10082	-803.74298	332.34702	45.79613	-854.26953	92.54504	78.63799	-858.12427	116.97316	156.70956	-800.59186	60.31407	126.87390	-1005.13165	69.33512	159.78761	-1016.10876	101.90244	114.30862	-979.78290	58.64257	49.80436
